<?xml version="1.0" encoding="UTF-8"?>
<!DOCTYPE svg PUBLIC "-//W3C//DTD SVG 1.1//EN" "http://www.w3.org/Graphics/SVG/1.1/DTD/svg11.dtd">
<!-- Creator: CorelDRAW -->
<svg xmlns="http://www.w3.org/2000/svg" xml:space="preserve" width="1593px" height="431px" version="1.1" style="shape-rendering:geometricPrecision; text-rendering:geometricPrecision; image-rendering:optimizeQuality; fill-rule:evenodd; clip-rule:evenodd"
viewBox="0 0 790.961 213.797"
 xmlns:xlink="http://www.w3.org/1999/xlink"
 xmlns:xodm="http://www.corel.com/coreldraw/odm/2003">
 <defs>
  <style type="text/css">
   <![CDATA[
    .fil0 {fill:black;fill-rule:nonzero}
   ]]>
  </style>
 </defs>
 <g id="Layer_x0020_1">
  <metadata id="CorelCorpID_0Corel-Layer"/>
  <g id="logo_black">
   <path class="fil0" d="M400.75 210.282l-4.141 -20.522 -26.185 0 -3.767 20.522 -40.214 0 -0.552 0 -32.853 -69.961 30.484 -68.787 35.763 0 10.379 0 38.668 0 32.652 138.748 -40.234 0zm-119.263 0l-23.409 0 11.509 -42.017 0.392 0 11.508 42.017zm-67.812 0l-29.51 0c5.653,-2.078 10.287,-5.073 13.897,-8.99 7.429,-7.947 11.141,-20.455 11.141,-37.521l0 -92.237 6.84 0 30.484 68.787 -32.852 69.961zm-77.35 0l-30.694 0 0 -30.878 -42.602 0 0 -107.87 50.029 0 0 92.237c0,17.978 3.255,30.616 9.772,37.91 3.305,3.727 7.802,6.595 13.495,8.601zm-112.378 0l-23.947 0 0 -138.748 23.947 0 0 138.748zm128.195 -138.748l17.976 0 0 99.663c0,5.341 -0.324,8.991 -0.976,10.942 -1.172,3.909 -3.842,5.863 -8.014,5.863 -4.167,0 -6.837,-1.954 -8.011,-5.863 -0.65,-1.951 -0.975,-5.601 -0.975,-10.942l0 -99.663zm107.088 0l21.103 0 -10.354 40.452 -0.392 0 -10.357 -40.452zm133.079 87.743l-8.403 -57.259 -0.39 0 -8.99 57.259 17.783 0zm94.193 -59.602l0 30.681 5.668 0c8.858,0 13.287,-5.473 13.287,-16.414 0,-9.513 -4.819,-14.267 -14.459,-14.267l-4.496 0zm-39.083 110.607l0 -138.748 58.625 0c25.665,0 38.498,12.181 38.498,36.542 0,20.192 -7.752,31.398 -23.257,33.612l0 0.392c8.598,0.652 14.788,4.361 18.568,11.139 2.473,4.429 3.71,12.375 3.71,23.841l0 11.529c0,8.596 0.557,13.192 1.663,15.341 1.107,2.15 2.506,3.617 4.199,4.399l0 1.953 -41.428 0c-1.953,-2.346 -2.93,-8.276 -2.93,-19.35 0,-2.343 -0.1,-5.828 -0.292,-10.452 -0.197,-4.626 -0.295,-8.046 -0.295,-10.259 0,-5.604 -0.912,-9.448 -2.738,-11.531 -1.561,-1.694 -4.231,-2.539 -8.011,-2.539l-7.229 0 0 54.131 -39.083 0zm100.248 -105.918l0 -32.83 92.239 0 0 32.83 -26.58 0 0 105.918 -39.082 0 0 -105.918 -26.577 0zm97.122 105.918l0 -138.748 39.085 0 0 138.748 -39.085 0zm105.916 -98.689l0 -5.665c0,-7.557 -3.063,-11.337 -9.185,-11.337 -5.991,0 -8.988,3.518 -8.988,10.552 0,7.297 5.048,13.16 15.11,17.592 16.97,7.554 26.382,11.983 28.209,13.287 10.062,7.424 15.11,18.238 15.11,32.44 0,16.155 -4.007,27.748 -12.05,34.783 -8.012,7.035 -21.104,10.552 -39.248,10.552 -15.662,0 -27.163,-2.995 -34.458,-8.988 -7.979,-6.383 -11.951,-17.002 -11.951,-31.853l0 -3.715 37.909 0 0 6.45c0,8.207 3.29,12.311 9.869,12.311 6.45,0 9.673,-4.104 9.673,-12.311 0,-4.039 -0.782,-7.099 -2.343,-9.185 -0.912,-1.431 -2.966,-2.995 -6.093,-4.689 -4.037,-1.956 -10.519,-5.016 -19.41,-9.185 -10.977,-5.471 -18.306,-10.682 -21.953,-15.633 -4.202,-5.471 -6.285,-13.225 -6.285,-23.255 0,-17.196 4.951,-29.312 14.851,-36.347 8.079,-5.733 18.695,-8.6 31.855,-8.6 18.109,0 30.744,4.236 37.908,12.702 5.474,6.515 8.209,16.545 8.209,30.094l-36.739 0z"/>
   <path class="fil0" d="M136.629 1.244l17.165 0 0 4.228 -12.934 0 0 7.663 12.934 0 0 4.229 -12.934 0 0 14.827 -4.231 0 0 -30.947zm64.827 0l4.228 0 0 19.023c0,2.809 0.679,4.99 2.031,6.534 1.353,1.533 3.268,2.304 5.747,2.304 2.454,0 4.37,-0.704 5.738,-2.121 1.369,-1.42 2.057,-3.419 2.057,-5.988l0 -19.752 4.23 0 0 19.452c0,3.79 -1.08,6.819 -3.242,9.09 -2.165,2.264 -5.044,3.399 -8.642,3.399 -3.674,0 -6.617,-1.151 -8.831,-3.448 -2.215,-2.299 -3.316,-5.689 -3.316,-10.176l0 -18.317zm72.783 -1.244l22.889 23.501 0 -22.257 4.228 0 0 32.389 -22.887 -23.427 0 21.985 -4.23 0 0 -32.191zm76.321 1.244l7.503 0c5.946,0 10.375,1.567 13.269,4.708 2.902,3.144 4.354,6.735 4.354,10.765 0,4.062 -1.501,7.663 -4.494,10.788 -3.003,3.128 -7.356,4.686 -13.078,4.686l-7.554 0 0 -30.947zm4.228 4.129l0 22.589 0.24 0c3.135,0 5.491,-0.141 7.075,-0.424 1.583,-0.282 3.085,-0.903 4.502,-1.856 1.427,-0.956 2.553,-2.216 3.391,-3.79 0.838,-1.576 1.26,-3.31 1.26,-5.2 0,-2.38 -0.671,-4.529 -2.005,-6.451 -1.344,-1.916 -2.943,-3.211 -4.81,-3.873 -1.865,-0.665 -4.37,-0.995 -7.522,-0.995l-2.131 0zm79.179 -5.325l14.603 32.143 -4.404 0 -3.589 -7.912 -13.145 0 -3.572 7.912 -4.397 0 14.504 -32.143zm0.016 9.72l-4.958 10.979 9.943 0 -4.985 -10.979zm84.337 -7.481l0 4.778c-3.333,-1.625 -6.41,-2.44 -9.212,-2.44 -3.591,0 -6.626,1.161 -9.089,3.476 -2.462,2.322 -3.691,5.166 -3.691,8.54 0,3.442 1.261,6.313 3.784,8.616 2.511,2.299 5.67,3.451 9.46,3.451 2.754,0 5.671,-0.864 8.748,-2.588l0 4.827c-2.802,1.493 -5.837,2.238 -9.112,2.238 -4.801,0 -8.898,-1.615 -12.298,-4.858 -3.409,-3.243 -5.11,-7.157 -5.11,-11.734 0,-4.494 1.676,-8.344 5.018,-11.543 3.351,-3.201 7.381,-4.803 12.099,-4.803 3.026,0 6.162,0.681 9.403,2.04zm55.073 -1.043l4.228 0 0 22.688c0,6.17 -2.569,9.253 -7.711,9.253 -1.782,0 -3.541,-0.464 -5.274,-1.391l2.089 -3.435c1.362,0.464 2.472,0.697 3.335,0.697 2.223,0 3.333,-1.493 3.333,-4.47l0 -23.342zm66.334 -1.196l14.603 32.143 -4.404 0 -3.589 -7.912 -13.144 0 -3.573 7.912 -4.397 0 14.504 -32.143zm0.016 9.72l-4.958 10.979 9.944 0 -4.986 -10.979z"/>
  </g>
 </g>
</svg>
